<mxfile host="app.diagrams.net" modified="2023-12-02T22:17:26.695Z" agent="Mozilla/5.0 (Windows NT 10.0; Win64; x64) AppleWebKit/537.36 (KHTML, like Gecko) Chrome/119.0.0.0 Safari/537.36" etag="7NEITWhfp1mWVJ7MvfNN" version="22.1.5" type="github">
  <diagram name="Page-1" id="cPcBOYW6j-JbavPzU2QD">
    <mxGraphModel dx="1034" dy="420" grid="1" gridSize="10" guides="1" tooltips="1" connect="1" arrows="1" fold="1" page="1" pageScale="1" pageWidth="850" pageHeight="1100" math="0" shadow="0">
      <root>
        <mxCell id="0" />
        <mxCell id="1" parent="0" />
        <mxCell id="UilqEPzGM-sBeppRK5vG-1" value="&lt;font style=&quot;font-size: 24px;&quot;&gt;Client&amp;nbsp;&lt;/font&gt;" style="rounded=0;whiteSpace=wrap;html=1;fillColor=#f8cecc;strokeColor=#b85450;" vertex="1" parent="1">
          <mxGeometry x="60" y="120" width="150" height="100" as="geometry" />
        </mxCell>
        <mxCell id="UilqEPzGM-sBeppRK5vG-2" value="&lt;font style=&quot;font-size: 24px;&quot;&gt;Server&lt;/font&gt;" style="rounded=0;whiteSpace=wrap;html=1;fillColor=#f8cecc;strokeColor=#b85450;" vertex="1" parent="1">
          <mxGeometry x="620" y="120" width="160" height="100" as="geometry" />
        </mxCell>
        <mxCell id="UilqEPzGM-sBeppRK5vG-3" value="" style="endArrow=classic;html=1;rounded=0;exitX=1;exitY=0.25;exitDx=0;exitDy=0;entryX=0;entryY=0.25;entryDx=0;entryDy=0;" edge="1" parent="1" source="UilqEPzGM-sBeppRK5vG-1" target="UilqEPzGM-sBeppRK5vG-2">
          <mxGeometry width="50" height="50" relative="1" as="geometry">
            <mxPoint x="380" y="270" as="sourcePoint" />
            <mxPoint x="430" y="220" as="targetPoint" />
          </mxGeometry>
        </mxCell>
        <mxCell id="UilqEPzGM-sBeppRK5vG-4" value="&lt;font style=&quot;font-size: 14px;&quot;&gt;client raises a request&amp;nbsp;&lt;/font&gt;" style="text;html=1;align=center;verticalAlign=middle;resizable=0;points=[];autosize=1;strokeColor=none;fillColor=none;" vertex="1" parent="1">
          <mxGeometry x="295" y="110" width="160" height="30" as="geometry" />
        </mxCell>
        <mxCell id="UilqEPzGM-sBeppRK5vG-5" value="" style="endArrow=classic;html=1;rounded=0;exitX=-0.029;exitY=0.893;exitDx=0;exitDy=0;exitPerimeter=0;" edge="1" parent="1" source="UilqEPzGM-sBeppRK5vG-2">
          <mxGeometry width="50" height="50" relative="1" as="geometry">
            <mxPoint x="380" y="270" as="sourcePoint" />
            <mxPoint x="210" y="210" as="targetPoint" />
          </mxGeometry>
        </mxCell>
        <mxCell id="UilqEPzGM-sBeppRK5vG-6" value="&lt;font style=&quot;font-size: 14px;&quot;&gt;server mandatory sends the back the response&amp;nbsp;&lt;br&gt;after processing the request&lt;/font&gt;" style="text;html=1;align=center;verticalAlign=middle;resizable=0;points=[];autosize=1;strokeColor=none;fillColor=none;" vertex="1" parent="1">
          <mxGeometry x="215" y="215" width="320" height="50" as="geometry" />
        </mxCell>
        <mxCell id="UilqEPzGM-sBeppRK5vG-7" value="&lt;font style=&quot;font-size: 24px;&quot;&gt;Client-Server Architecture for Http/Https protocols&lt;/font&gt;" style="text;html=1;align=center;verticalAlign=middle;resizable=0;points=[];autosize=1;strokeColor=none;fillColor=none;" vertex="1" parent="1">
          <mxGeometry x="110" y="330" width="550" height="40" as="geometry" />
        </mxCell>
      </root>
    </mxGraphModel>
  </diagram>
</mxfile>
